<svg width="48" height="48" viewBox="0 0 48 48" fill="none" xmlns="http://www.w3.org/2000/svg">
<path d="M26.9024 29.912C26.6464 28.344 26.3424 27.256 25.9904 26.648C25.6704 26.008 25.1424 25.592 24.4064 25.4C23.6704 25.176 22.4544 25.064 20.7584 25.064H19.3664V38.552C19.3664 38.904 19.4304 39.144 19.5584 39.272C19.7184 39.4 20.0384 39.512 20.5184 39.608L22.5824 40.04V41H6.64644V40.04L8.42244 39.656C8.90244 39.56 9.20644 39.448 9.33444 39.32C9.49444 39.192 9.57444 38.952 9.57444 38.6V9.8C9.57444 9.448 9.49444 9.208 9.33444 9.08C9.20644 8.952 8.90244 8.84 8.42244 8.744L6.64644 8.36V7.4H20.7584C25.0464 7.4 28.4544 7.688 30.9824 8.264C33.5104 8.808 35.3504 9.72 36.5024 11C37.6544 12.28 38.2304 14.024 38.2304 16.232C38.2304 18.696 37.4944 20.6 36.0224 21.944C34.5504 23.256 32.1664 24.152 28.8704 24.632C30.7584 24.76 32.2624 25.064 33.3824 25.544C34.5344 26.024 35.4304 26.792 36.0704 27.848C36.7104 28.872 37.2064 30.296 37.5584 32.12L38.0864 35C38.3424 36.376 38.5184 37.304 38.6144 37.784C38.7424 38.264 38.9024 38.632 39.0944 38.888C39.3184 39.144 39.6544 39.272 40.1024 39.272C40.9024 39.272 41.5744 38.68 42.1184 37.496L43.1264 38.36C42.6784 39.288 41.9904 40.04 41.0624 40.616C40.1664 41.192 38.6944 41.48 36.6464 41.48C34.5984 41.48 32.9824 41.256 31.7984 40.808C30.6144 40.36 29.6864 39.576 29.0144 38.456C28.3424 37.304 27.8304 35.656 27.4784 33.512L26.9024 29.912ZM19.3664 23.624H21.1904C23.0464 23.624 24.4704 23.368 25.4624 22.856C26.4864 22.344 27.1904 21.56 27.5744 20.504C27.9584 19.448 28.1504 18.024 28.1504 16.232C28.1504 14.44 27.9584 13.016 27.5744 11.96C27.1904 10.904 26.4864 10.12 25.4624 9.608C24.4704 9.096 23.0464 8.84 21.1904 8.84H19.3664V23.624Z" fill="white"/>
</svg>
